<svg width="250" height="250" viewBox="0 0 250 250" fill="none" xmlns="http://www.w3.org/2000/svg">
<circle cx="125" cy="125" r="125" fill="#1A1818" fill-opacity="0.7"/>
<path d="M122.725 118.994C118.812 118.994 115.627 122.176 115.627 126.092C115.627 130.005 118.808 133.19 122.725 133.19C126.641 133.19 129.823 130.009 129.823 126.092C129.823 122.179 126.638 118.994 122.725 118.994ZM122.725 130.824C120.117 130.824 117.993 128.703 117.993 126.092C117.993 123.485 120.114 121.36 122.725 121.36C125.332 121.36 127.457 123.481 127.457 126.092C127.457 128.7 125.336 130.824 122.725 130.824Z" fill="white"/>
<path d="M126.274 136.735H110.899C110.248 136.735 109.716 136.207 109.716 135.552V116.631C109.716 115.98 110.248 115.448 110.899 115.448H114.448C115.102 115.448 115.631 114.92 115.631 114.265C115.631 113.611 115.102 113.082 114.448 113.082H110.899C108.942 113.082 107.35 114.675 107.35 116.631V135.556C107.35 137.512 108.942 139.105 110.899 139.105H126.274C126.929 139.105 127.457 138.576 127.457 137.922C127.457 137.264 126.929 136.735 126.274 136.735Z" fill="white"/>
<path d="M123.908 115.448H135.734C136.389 115.448 136.917 115.98 136.917 116.631V126.092C136.917 126.746 137.446 127.275 138.1 127.275C138.755 127.275 139.283 126.746 139.283 126.092V116.631C139.283 114.675 137.691 113.082 135.734 113.082H123.908C123.253 113.082 122.725 113.611 122.725 114.265C122.725 114.92 123.253 115.448 123.908 115.448Z" fill="white"/>
<path d="M132.191 118.402C132.191 119.382 132.985 120.176 133.965 120.176C134.945 120.176 135.74 119.382 135.74 118.402C135.74 117.422 134.945 116.627 133.965 116.627C132.985 116.627 132.191 117.422 132.191 118.402Z" fill="white"/>
<path d="M116.81 111.899H121.542C122.196 111.899 122.725 111.371 122.725 110.716C122.725 110.062 122.196 109.533 121.542 109.533H116.81C116.155 109.533 115.627 110.062 115.627 110.716C115.63 111.371 116.159 111.899 116.81 111.899Z" fill="white"/>
<path d="M140.465 134.369H136.916V130.824C136.916 130.169 136.387 129.641 135.733 129.641C135.078 129.641 134.55 130.169 134.55 130.824V134.373H131.004C130.35 134.373 129.821 134.901 129.821 135.556C129.821 136.21 130.35 136.739 131.004 136.739H134.553V140.288C134.553 140.942 135.082 141.471 135.736 141.471C136.391 141.471 136.919 140.942 136.919 140.288V136.735H140.468C141.123 136.735 141.651 136.207 141.651 135.552C141.648 134.901 141.119 134.369 140.465 134.369Z" fill="white"/>
</svg>
