<svg width="254" height="254" viewBox="0 0 254 254" fill="none" xmlns="http://www.w3.org/2000/svg">
<circle cx="127" cy="127" r="126" fill="white" stroke="#DFE0EB" stroke-width="2"/>
<path d="M124.725 120.994C120.812 120.994 117.627 124.176 117.627 128.092C117.627 132.005 120.808 135.19 124.725 135.19C128.641 135.19 131.823 132.009 131.823 128.092C131.823 124.179 128.638 120.994 124.725 120.994ZM124.725 132.824C122.117 132.824 119.993 130.703 119.993 128.092C119.993 125.485 122.114 123.36 124.725 123.36C127.332 123.36 129.457 125.481 129.457 128.092C129.457 130.7 127.336 132.824 124.725 132.824Z" fill="#1A1818" fill-opacity="0.7"/>
<path d="M128.274 138.735H112.899C112.248 138.735 111.716 138.207 111.716 137.552V118.631C111.716 117.98 112.248 117.448 112.899 117.448H116.448C117.102 117.448 117.631 116.92 117.631 116.265C117.631 115.611 117.102 115.082 116.448 115.082H112.899C110.942 115.082 109.35 116.675 109.35 118.631V137.556C109.35 139.512 110.942 141.105 112.899 141.105H128.274C128.929 141.105 129.457 140.576 129.457 139.922C129.457 139.264 128.929 138.735 128.274 138.735Z" fill="#1A1818" fill-opacity="0.7"/>
<path d="M125.908 117.448H137.734C138.389 117.448 138.917 117.98 138.917 118.631V128.092C138.917 128.746 139.446 129.275 140.1 129.275C140.755 129.275 141.283 128.746 141.283 128.092V118.631C141.283 116.675 139.691 115.082 137.734 115.082H125.908C125.253 115.082 124.725 115.611 124.725 116.265C124.725 116.92 125.253 117.448 125.908 117.448Z" fill="#1A1818" fill-opacity="0.7"/>
<path d="M134.191 120.402C134.191 121.382 134.985 122.176 135.965 122.176C136.945 122.176 137.74 121.382 137.74 120.402C137.74 119.422 136.945 118.627 135.965 118.627C134.985 118.627 134.191 119.422 134.191 120.402Z" fill="#1A1818" fill-opacity="0.7"/>
<path d="M118.81 113.899H123.542C124.196 113.899 124.725 113.371 124.725 112.716C124.725 112.062 124.196 111.533 123.542 111.533H118.81C118.155 111.533 117.627 112.062 117.627 112.716C117.63 113.371 118.159 113.899 118.81 113.899Z" fill="#1A1818" fill-opacity="0.7"/>
<path d="M142.465 136.369H138.916V132.824C138.916 132.169 138.387 131.641 137.733 131.641C137.078 131.641 136.55 132.169 136.55 132.824V136.373H133.004C132.35 136.373 131.821 136.901 131.821 137.556C131.821 138.21 132.35 138.739 133.004 138.739H136.553V142.288C136.553 142.942 137.082 143.471 137.736 143.471C138.391 143.471 138.919 142.942 138.919 142.288V138.735H142.468C143.123 138.735 143.651 138.207 143.651 137.552C143.648 136.901 143.119 136.369 142.465 136.369Z" fill="#1A1818" fill-opacity="0.7"/>
</svg>
